<svg width="240" height="73" viewBox="0 0 240 73" fill="none" xmlns="http://www.w3.org/2000/svg">
<circle cx="109" cy="37" r="36" fill="white"/>
<path d="M9.792 70V0.303999H29.184C36.096 0.303999 41.984 1.36 46.848 3.472C51.712 5.584 55.616 8.368 58.56 11.824C61.568 15.28 63.744 19.12 65.088 23.344C66.496 27.568 67.2 31.824 67.2 36.112C67.2 41.296 66.272 45.968 64.416 50.128C62.56 54.288 60.032 57.872 56.832 60.88C53.632 63.824 49.952 66.096 45.792 67.696C41.632 69.232 37.216 70 32.544 70H9.792ZM20.064 60.112H30.624C34.4 60.112 37.856 59.568 40.992 58.48C44.192 57.392 46.944 55.792 49.248 53.68C51.616 51.568 53.44 48.976 54.72 45.904C56 42.832 56.64 39.312 56.64 35.344C56.64 31.056 55.904 27.344 54.432 24.208C53.024 21.008 51.136 18.384 48.768 16.336C46.4 14.224 43.744 12.688 40.8 11.728C37.92 10.704 34.976 10.192 31.968 10.192H20.064V60.112Z" fill="white" fill-opacity="0.7"/>
<path d="M141.704 1.304H188.168V11.192H169.832V71H159.56V11.192H141.704V1.304ZM229.355 14.648C226.923 13.368 224.299 12.28 221.483 11.384C218.667 10.488 215.947 10.04 213.323 10.04C209.739 10.04 206.891 10.872 204.779 12.536C202.667 14.136 201.611 16.344 201.611 19.16C201.611 21.144 202.315 22.872 203.723 24.344C205.131 25.816 206.955 27.096 209.195 28.184C211.435 29.272 213.803 30.296 216.299 31.256C218.411 32.024 220.491 32.952 222.539 34.04C224.651 35.064 226.539 36.344 228.203 37.88C229.931 39.416 231.275 41.336 232.235 43.64C233.259 45.88 233.771 48.632 233.771 51.896C233.771 55.608 232.843 58.968 230.987 61.976C229.195 64.984 226.571 67.384 223.115 69.176C219.723 70.904 215.595 71.768 210.731 71.768C207.787 71.768 204.907 71.448 202.091 70.808C199.339 70.104 196.715 69.208 194.219 68.12C191.787 66.968 189.579 65.72 187.595 64.376L192.203 56.408C193.739 57.496 195.499 58.552 197.483 59.576C199.467 60.536 201.515 61.304 203.627 61.88C205.803 62.456 207.851 62.744 209.771 62.744C211.883 62.744 213.963 62.392 216.011 61.688C218.059 60.92 219.755 59.768 221.099 58.232C222.443 56.632 223.115 54.552 223.115 51.992C223.115 49.816 222.507 47.992 221.291 46.52C220.139 44.984 218.571 43.672 216.587 42.584C214.667 41.496 212.587 40.536 210.347 39.704C208.171 38.872 205.963 37.944 203.723 36.92C201.483 35.896 199.403 34.68 197.483 33.272C195.563 31.8 193.995 30.008 192.779 27.896C191.627 25.72 191.051 23.064 191.051 19.928C191.051 16.216 191.915 12.984 193.643 10.232C195.435 7.416 197.899 5.208 201.035 3.608C204.171 2.008 207.787 1.112 211.883 0.919998C216.555 0.919998 220.619 1.496 224.075 2.648C227.531 3.8 230.603 5.176 233.291 6.776L229.355 14.648Z" fill="white" fill-opacity="0.7"/>
</svg>
